<svg id="Group_3" data-name="Group 3" xmlns="http://www.w3.org/2000/svg" xmlns:xlink="http://www.w3.org/1999/xlink" width="18" height="22" viewBox="0 0 18 22">
  <defs>
    <clipPath id="clip-path">
      <path id="Clip_2" data-name="Clip 2" d="M0,0H18V22H0Z" fill="none"/>
    </clipPath>
  </defs>
  <path id="Clip_2-2" data-name="Clip 2" d="M0,0H18V22H0Z" fill="none"/>
  <g id="Group_3-2" data-name="Group 3" clip-path="url(#clip-path)">
    <path id="Fill_1" data-name="Fill 1" d="M9,22a1.986,1.986,0,0,1-1.555-.8L6.294,19.76c-1.5-1.873-3.049-3.808-4.529-5.744A8.424,8.424,0,0,1,.076,9.984a8.7,8.7,0,0,1,.457-4.13A8.873,8.873,0,0,1,6.989.221,9.331,9.331,0,0,1,9,0a9.109,9.109,0,0,1,5.842,2.118,8.759,8.759,0,0,1,3.05,5.445c.042.281.06.57.077.849.008.132.017.268.028.4a8.923,8.923,0,0,1-2.026,5.549c-.765.96-1.537,1.937-2.284,2.88-1.031,1.3-2.1,2.648-3.152,3.966A1.969,1.969,0,0,1,9,22ZM8.989,5.472h0A3.323,3.323,0,0,0,5.639,8.721,3.25,3.25,0,0,0,6.6,11.064a3.368,3.368,0,0,0,2.372.979H9A3.323,3.323,0,0,0,12.352,8.79a3.244,3.244,0,0,0-.95-2.316,3.366,3.366,0,0,0-2.4-1H8.989Z"/>
  </g>
</svg>
