<svg id="Group_9" data-name="Group 9" xmlns="http://www.w3.org/2000/svg" width="17" height="17" viewBox="0 0 17 17">
  <path id="Fill_1" data-name="Fill 1" d="M8.272,0V.2q0,3.965,0,7.931a.26.26,0,0,1-.168.273Q4.174,10.385.244,12.373c-.072.036-.145.068-.241.112v-.21Q0,8.32,0,4.364a.259.259,0,0,1,.159-.277q3.969-2,7.933-4c.05-.025.1-.048.18-.086" transform="translate(8.725 4.515)"/>
  <path id="Fill_3" data-name="Fill 3" d="M.011,0l.34.169C1.2.6,2.04,1.026,2.888,1.448a.232.232,0,0,1,.152.244c-.006.907,0,1.813,0,2.72v.231c.354,0,.693.005,1.033,0a.389.389,0,0,1,.315.13c.345.353.7.7,1.072,1.068V2.759c.082.036.133.055.182.08L8.126,4.093c.086.043.151.08.151.206q-.008,4.042,0,8.084c0,.025,0,.05-.008.1-.071-.034-.132-.061-.191-.091q-3.958-2-7.917-4C.058,8.346,0,8.3,0,8.175Q.007,4.142,0,.109C0,.084.007.059.011,0" transform="translate(0 4.514)"/>
  <path id="Fill_5" data-name="Fill 5" d="M11.009,1.505c-.567.288-1.117.567-1.667.845Q6.154,3.959,2.968,5.571a.369.369,0,0,1-.383,0c-.8-.411-1.6-.812-2.4-1.216C.131,4.323.077,4.292,0,4.251L1.568,3.41Q4.7,1.73,7.829.048A.3.3,0,0,1,8.14.041C9.045.5,9.954.96,10.861,1.418c.044.022.086.05.148.087" transform="translate(5.722 2.623)"/>
  <path id="Fill_7" data-name="Fill 7" d="M0,4.124c.524-.266,1.018-.517,1.513-.767Q4.784,1.705,8.054.051a.367.367,0,0,1,.381,0c.791.407,1.587.8,2.382,1.206.055.028.108.06.188.1-.128.071-.235.133-.344.191Q6.922,3.562,3.181,5.564a.329.329,0,0,1-.255.03C1.958,5.116,1,4.627,0,4.124" transform="translate(0.261)"/>
</svg>
