<svg id="Group_4" data-name="Group 4" xmlns="http://www.w3.org/2000/svg" width="22" height="16" viewBox="0 0 22 16">
  <g id="Group_11" data-name="Group 11">
    <path id="Fill_1" data-name="Fill 1" d="M0,.225A.431.431,0,0,1,.389,0C1.777,0,3.165,0,4.553,0c.027,0,.055,0,.084.008a7.015,7.015,0,0,0-.52.748,7.617,7.617,0,0,0-.338.882H2.648c-.73,0-1.46,0-2.189,0A.493.493,0,0,1,0,1.425Z" transform="translate(0 11.956)"/>
    <path id="Fill_3" data-name="Fill 3" d="M5.6,10.984H.472c-.383,0-.472-.091-.472-.478q0-4.7,0-9.4A.976.976,0,0,1,1.058,0q4.563,0,9.126,0a.973.973,0,0,1,1.053,1.089q0,4.722,0,9.444c0,.347-.1.45-.437.45H5.6" transform="translate(0.773)"/>
    <path id="Fill_5" data-name="Fill 5" d="M1.1,11.586c-.173,0-.242-.034-.283-.225A2.631,2.631,0,0,0,0,9.954H4.847V7.876c0-2.3,0-4.683,0-7.024A1.393,1.393,0,0,1,4.9.416.575.575,0,0,1,5.484,0l.4,0,1,0c.665,0,1.2.006,1.691.019A2.306,2.306,0,0,1,10.48,1.1c.578.857,1.148,1.74,1.7,2.594l.273.422a2.744,2.744,0,0,1,.413,1.538q0,1.341,0,2.682,0,.67,0,1.34v.271h.425l.266,0c.265,0,.38.122.383.393,0,.252,0,.528,0,.844,0,.269-.117.4-.359.4l-.688,0h-.458c-.4,0-.811,0-1.216,0-.136,0-.153-.078-.172-.169l-.005-.026a2.639,2.639,0,0,0-1.46-1.858A2.332,2.332,0,0,0,8.556,9.3a2.51,2.51,0,0,0-2.09,1.095,3.407,3.407,0,0,0-.3.56,3.714,3.714,0,0,0-.138.42c-.019.068-.039.137-.061.208H3.6C2.915,11.582,2.012,11.582,1.1,11.586ZM8.53,4.658h.927c.268,0,.623,0,.985-.01a.4.4,0,0,0,.314-.164.469.469,0,0,0-.04-.381c-.318-.486-.651-.974-.973-1.446-.157-.23-.312-.457-.466-.685a.445.445,0,0,0-.4-.212H6.687c-.295,0-.405.113-.407.413,0,.685,0,1.381,0,2.067,0,.308.1.412.4.413H8.53Z" transform="translate(8.057 2.015)"/>
    <path id="Fill_7" data-name="Fill 7" d="M1.967,4.04H1.932A2.007,2.007,0,0,1,0,2.019,2.009,2.009,0,0,1,1.942,0h.014A1.927,1.927,0,0,1,3.324.6,2.023,2.023,0,0,1,3.9,2.032,2,2,0,0,1,1.967,4.04ZM1.949,1.014h0a.978.978,0,0,0-.97.992.978.978,0,0,0,.952,1.018h.013a.994.994,0,0,0,.979-1,.991.991,0,0,0-.967-1.006H1.949Z" transform="translate(4.424 11.96)"/>
    <path id="Fill_9" data-name="Fill 9" d="M1.95,4.04h0A1.9,1.9,0,0,1,.595,3.467,2.037,2.037,0,0,1,0,2.012,1.984,1.984,0,0,1,1.938,0h.022A2.007,2.007,0,0,1,3.9,2.016a2.052,2.052,0,0,1-.6,1.447A1.9,1.9,0,0,1,1.95,4.04Zm0-3.025H1.939A.99.99,0,0,0,.973,2.021a.994.994,0,0,0,.979,1h.013a.951.951,0,0,0,.671-.3,1.021,1.021,0,0,0,.287-.723A1,1,0,0,0,1.946,1.015Z" transform="translate(14.645 11.96)"/>
  </g>
</svg>
